# xmcd
#
# Track frame offsets:
#	150
#	30516
#	54172
#	81810
#	105770
#	120416
#	165545
#	185358
#	202194
#	244501
#	267534
#	293078
#	322656
#
# Disc length: 4675 seconds
#
# Revision: 2
# Processed by: cddbd v1.4PL0 Copyright (c) Steve Scherf et al.
# Submitted via: MusicWizard 6.0.2
#
DISCID=9e12410d
DTITLE=Henderson, Bugs and The Shuffle Kings - We're A Texas Band (Live In Germany) CD2
DYEAR=2003
DGENRE=Blues
TTITLE0=Shadow Of The Rose
TTITLE1=Stabbed In The Back
TTITLE2=Highway 61 Revisited
TTITLE3=Tom's Trip To Texas
TTITLE4=Big D Shuffle
TTITLE5=Shakey Ground/Try A Little Harder/Day Tripper Medley
TTITLE6=Lawdy Miss Clawdy
TTITLE7=Sweet Little Sixteen
TTITLE8=Beatles Medley/Sleepwalk
TTITLE9=Woman On Fire
TTITLE10=Hello Mary Lou
TTITLE11=Blue Casino
TTITLE12=Going Down
EXTD=
EXTT0=
EXTT1=
EXTT2=
EXTT3=
EXTT4=
EXTT5=
EXTT6=
EXTT7=
EXTT8=
EXTT9=
EXTT10=
EXTT11=
EXTT12=
PLAYORDER=
